<mxfile host="Electron" agent="Mozilla/5.0 (Windows NT 10.0; Win64; x64) AppleWebKit/537.36 (KHTML, like Gecko) draw.io/26.2.2 Chrome/134.0.6998.178 Electron/35.1.2 Safari/537.36" version="26.2.2">
  <diagram name="Page-1" id="vj1_JwqHmYUpO_BEOTyR">
    <mxGraphModel dx="2382" dy="1105" grid="0" gridSize="10" guides="1" tooltips="1" connect="1" arrows="1" fold="1" page="0" pageScale="1" pageWidth="850" pageHeight="1100" math="0" shadow="0">
      <root>
        <mxCell id="0" />
        <mxCell id="1" parent="0" />
        <mxCell id="M9MHeNSC7HXLCwR0G0TZ-1" value="LD 57: DEPTHS" style="text;html=1;align=center;verticalAlign=middle;whiteSpace=wrap;rounded=0;fontSize=29;fontFamily=Nosifer;fontSource=https%3A%2F%2Ffonts.googleapis.com%2Fcss%3Ffamily%3DNosifer;" parent="1" vertex="1">
          <mxGeometry x="-492" y="-244" width="306" height="58" as="geometry" />
        </mxCell>
        <mxCell id="M9MHeNSC7HXLCwR0G0TZ-7" value="&lt;div&gt;- Toobin&#39; but moving down the screen in a canoe&lt;/div&gt;&lt;div&gt;&lt;span style=&quot;white-space: pre;&quot;&gt;&#x9;&lt;/span&gt;- voyageurs travelling deep into the depths of the new frontier&lt;br&gt;&lt;/div&gt;&lt;span style=&quot;white-space: pre;&quot;&gt;&#x9;&lt;/span&gt;- mystical vortex beneath the forks" style="text;html=1;align=left;verticalAlign=middle;whiteSpace=wrap;rounded=0;fontFamily=VT323;fontSource=https%3A%2F%2Ffonts.googleapis.com%2Fcss%3Ffamily%3DVT323;" parent="1" vertex="1">
          <mxGeometry x="-483" y="-186" width="370" height="114" as="geometry" />
        </mxCell>
        <mxCell id="r4fsmwVK6FksccOSoPhw-1" value="- Controls:&lt;div&gt;&lt;span style=&quot;white-space: pre;&quot;&gt;&#x9;&lt;/span&gt;- Control two paddlers&lt;br&gt;&lt;/div&gt;&lt;div&gt;&lt;span style=&quot;white-space: pre;&quot;&gt;&#x9;&lt;/span&gt;- Each paddler can either paddle forward or backward&lt;br&gt;&lt;/div&gt;&lt;div&gt;&lt;span style=&quot;white-space: pre;&quot;&gt;&#x9;&lt;/span&gt;- Use these controls to guide the canoe&lt;/div&gt;" style="text;html=1;align=left;verticalAlign=middle;whiteSpace=wrap;rounded=0;fontFamily=VT323;fontSource=https%3A%2F%2Ffonts.googleapis.com%2Fcss%3Ffamily%3DVT323;" parent="1" vertex="1">
          <mxGeometry x="-495" y="177" width="305" height="114" as="geometry" />
        </mxCell>
        <mxCell id="r4fsmwVK6FksccOSoPhw-2" value="- Overall Arc:&lt;div&gt;&lt;span style=&quot;white-space: pre;&quot;&gt;&#x9;&lt;/span&gt;- you need to make it down the river to a goal&lt;br&gt;&lt;/div&gt;&lt;div&gt;&lt;span style=&quot;white-space: pre;&quot;&gt;&#x9;&lt;/span&gt;- it will be in multiple stages&lt;br&gt;&lt;/div&gt;&lt;div&gt;&lt;span style=&quot;white-space: pre;&quot;&gt;&#x9;&lt;/span&gt;&lt;span style=&quot;white-space: pre;&quot;&gt;&#x9;&lt;/span&gt;- after each stage is a stop at camp&lt;br&gt;&lt;/div&gt;&lt;div&gt;&lt;span style=&quot;white-space: pre;&quot;&gt;&#x9;&lt;/span&gt;&lt;span style=&quot;white-space: pre;&quot;&gt;&#x9;&lt;/span&gt;- here you invest points in upgrades to paddlers and improvements to your canoe&lt;br&gt;&lt;/div&gt;&lt;div&gt;&lt;span style=&quot;white-space: pre;&quot;&gt;&#x9;&lt;/span&gt;- sometimes the river branches and you can take alternate routes&lt;br&gt;&lt;/div&gt;" style="text;html=1;align=left;verticalAlign=middle;whiteSpace=wrap;rounded=0;fontFamily=VT323;fontSource=https%3A%2F%2Ffonts.googleapis.com%2Fcss%3Ffamily%3DVT323;" parent="1" vertex="1">
          <mxGeometry x="-483" y="-78" width="524" height="136" as="geometry" />
        </mxCell>
        <mxCell id="r4fsmwVK6FksccOSoPhw-3" value="&lt;div&gt;- Improvements:&lt;/div&gt;&lt;div&gt;&lt;span style=&quot;white-space: pre;&quot;&gt;&#x9;&lt;/span&gt;- paddling strength&lt;br&gt;&lt;/div&gt;&lt;div&gt;&lt;span style=&quot;background-color: transparent; color: light-dark(rgb(0, 0, 0), rgb(255, 255, 255)); white-space: pre;&quot;&gt;&#x9;&lt;/span&gt;&lt;span style=&quot;background-color: transparent; color: light-dark(rgb(0, 0, 0), rgb(255, 255, 255));&quot;&gt;- canoe turning speed&lt;/span&gt;&lt;/div&gt;&lt;div&gt;&lt;span style=&quot;white-space: pre;&quot;&gt;&#x9;&lt;/span&gt;- canoe armour&lt;/div&gt;" style="text;html=1;align=left;verticalAlign=middle;whiteSpace=wrap;rounded=0;fontFamily=VT323;fontSource=https%3A%2F%2Ffonts.googleapis.com%2Fcss%3Ffamily%3DVT323;" parent="1" vertex="1">
          <mxGeometry x="96" y="-104" width="154" height="93" as="geometry" />
        </mxCell>
        <mxCell id="r4fsmwVK6FksccOSoPhw-4" value="&lt;div&gt;- Other Factors:&lt;/div&gt;&lt;div&gt;&lt;span style=&quot;background-color: transparent; color: light-dark(rgb(0, 0, 0), rgb(255, 255, 255)); white-space: pre;&quot;&gt;&#x9;&lt;/span&gt;&lt;span style=&quot;background-color: transparent; color: light-dark(rgb(0, 0, 0), rgb(255, 255, 255));&quot;&gt;- stamina&lt;/span&gt;&lt;/div&gt;&lt;div&gt;&lt;span style=&quot;background-color: transparent; color: light-dark(rgb(0, 0, 0), rgb(255, 255, 255));&quot;&gt;&lt;span style=&quot;white-space: pre;&quot;&gt;&#x9;&lt;/span&gt;- weight&lt;br&gt;&lt;/span&gt;&lt;/div&gt;" style="text;html=1;align=left;verticalAlign=middle;whiteSpace=wrap;rounded=0;fontFamily=VT323;fontSource=https%3A%2F%2Ffonts.googleapis.com%2Fcss%3Ffamily%3DVT323;" parent="1" vertex="1">
          <mxGeometry x="96" width="154" height="93" as="geometry" />
        </mxCell>
        <mxCell id="r4fsmwVK6FksccOSoPhw-5" value="&lt;div&gt;- Juice:&lt;/div&gt;&lt;div&gt;&lt;span style=&quot;white-space: pre;&quot;&gt;&#x9;&lt;/span&gt;- paddling effect (ripples or particles)&lt;br&gt;&lt;/div&gt;&lt;div&gt;&lt;span style=&quot;white-space: pre;&quot;&gt;&#x9;&lt;/span&gt;- hitting finish flag effect&lt;/div&gt;&lt;div&gt;&lt;span style=&quot;white-space: pre;&quot;&gt;&#x9;&lt;/span&gt;- different dying effects&lt;br&gt;&lt;/div&gt;" style="text;html=1;align=left;verticalAlign=middle;whiteSpace=wrap;rounded=0;fontFamily=VT323;fontSource=https%3A%2F%2Ffonts.googleapis.com%2Fcss%3Ffamily%3DVT323;" parent="1" vertex="1">
          <mxGeometry x="-815" y="-53.5" width="236" height="87" as="geometry" />
        </mxCell>
        <mxCell id="r4fsmwVK6FksccOSoPhw-6" value="&lt;div&gt;-&amp;nbsp; Obstacles:&lt;/div&gt;&lt;div&gt;&lt;span style=&quot;white-space: pre;&quot;&gt;&#x9;&lt;/span&gt;- rocks: hitting them causes you to sink&lt;/div&gt;&lt;div&gt;&lt;span style=&quot;white-space: pre;&quot;&gt;&#x9;&lt;/span&gt;- whirlpool&lt;/div&gt;&lt;div&gt;&lt;span style=&quot;white-space: pre;&quot;&gt;&#x9;&lt;/span&gt;&lt;span style=&quot;white-space: pre;&quot;&gt;&#x9;&lt;/span&gt;- Mechanics: https://www.youtube.com/watch?v=CmzmvztoGHM&amp;amp;ab_channel=UnityMechanics&lt;/div&gt;&lt;div&gt;&lt;span style=&quot;white-space: pre;&quot;&gt;&#x9;&lt;/span&gt;- logs: floating walls&lt;br&gt;&lt;/div&gt;&lt;div&gt;&lt;span style=&quot;white-space: pre;&quot;&gt;&#x9;&lt;/span&gt;- aligator&amp;nbsp;&lt;br&gt;&lt;/div&gt;&lt;div&gt;&lt;span style=&quot;white-space: pre;&quot;&gt;&#x9;&lt;/span&gt;- river snake&lt;/div&gt;&lt;div&gt;&lt;span style=&quot;white-space: pre;&quot;&gt;&#x9;&lt;/span&gt;- Moose&amp;nbsp;&lt;br&gt;&lt;/div&gt;&lt;div&gt;&lt;span style=&quot;white-space: pre;&quot;&gt;&#x9;&lt;/span&gt;- river krakken&lt;br&gt;&lt;/div&gt;" style="text;html=1;align=left;verticalAlign=middle;whiteSpace=wrap;rounded=0;fontFamily=VT323;fontSource=https%3A%2F%2Ffonts.googleapis.com%2Fcss%3Ffamily%3DVT323;" parent="1" vertex="1">
          <mxGeometry x="-815" y="71" width="546" height="143" as="geometry" />
        </mxCell>
        <mxCell id="r4fsmwVK6FksccOSoPhw-7" value="&lt;div&gt;-&amp;nbsp; UI:&lt;/div&gt;&lt;div&gt;&lt;span style=&quot;white-space: pre;&quot;&gt;&#x9;&lt;/span&gt;- Lives&lt;/div&gt;&lt;div&gt;&lt;span style=&quot;white-space: pre;&quot;&gt;&#x9;&lt;/span&gt;- Pelts&lt;br&gt;&lt;/div&gt;" style="text;html=1;align=left;verticalAlign=middle;whiteSpace=wrap;rounded=0;fontFamily=VT323;fontSource=https%3A%2F%2Ffonts.googleapis.com%2Fcss%3Ffamily%3DVT323;" parent="1" vertex="1">
          <mxGeometry x="96" y="118" width="546" height="143" as="geometry" />
        </mxCell>
      </root>
    </mxGraphModel>
  </diagram>
</mxfile>
